<?xml version="1.0" encoding="UTF-8" standalone="no"?>
<svg width="168" height="50" version="1.1" xmlns="http://www.w3.org/2000/svg" xmlns:xlink="http://www.w3.org/1999/xlink">
  <g transform="translate(59 5)">
    <path 
      d="M106.181 3.99h-13.21V1.942h13.292l2.695-.988v2.262zM83.747 7.313l4-6.265h4.3l-4.1 6.265h-4.192zm3.766 1.147h4.3l-3.089 5.328.833-1.4.1 11.452h-3.926l.015-8.067h-2.6zm-30.558 5.551h3.962l.014 7.876h5.056l.021-9.936h-9.02l.056-7.925.77-2.02h4.17L61.2 3.99l-.237 5.036h5.024L66 1h4.019L70 9.026h4.97l.015-5.546.808-1.506h4.028l-.809 1.648L79 11.951h-9.03l.042 9.936h6l.016-7.876h3.9V24h-22.97zm-4.089 7.113L52.735 24h-3.286L45 19.381l-3.724 4.148h-2.7l4.838-5.771-.937-8.1h-5.522l-.008 5.275 4.14-.885v1.985l-4.141.938-.016 6.871h-6.791v-1.8H33l.009-4.285-4.459.992v-1.983l4.461-.99.011-6.117H28.3l.006-1.823h4.722l.007-4.236-4.032.421V2.143l9.957-.974 1.754-.988V2.01l-1.618 1-2.135.23-.01 4.6h5.307l-.515-6.9h3.717l.567 6.9h6.261v1.823h-6.1L46.71 14l2.394-2.87h2.81l-4.8 5.726 3.424 4.27h2.324zM46.632 1.252h3.978l1.635 4.91h-3.98zM19.34 11.8l1.5-6.686h3.56L22.9 11.8h-3.56zm-4.935 0H10.85L9.163 5.114h3.663zm7.516-8.774l-3.043.159-.019 9.868L24 13v2l-5.146-.116L19 24l-8.072-.156v-1.8h3.98l.015-7.159L9 15v-2l5.932.056.019-9.661-5.092.258V1.776l11.749-.611L23.887 0v1.885zM8 23H0L.044 1.776H8.48L8 2v21zM5 4H3v17h2V4zm104 6.918h-3.04l.032 12.968-9.962.031-.03-1.929h5.945l-.008-11.07-9.923.031-.03-2.02h17.02v1.989z"
      fill="#fff"
      fill-rule="evenodd"/>
  </g>
  <path
    d="M37 31zm8-2h-7a1 1 0 0 1-1-1V14h-.276A4.445 4.445 0 0 0 37 12.5a4.5 4.5 0 1 0-8.725 1.5H28v14a1 1 0 0 1-1 1h-8a1 1 0 0 1-1-1V14h-.05a4.576 4.576 0 0 0 .05-.5 4.5 4.5 0 0 0-9 0 4.576 4.576 0 0 0 .05.5H9v14a1 1 0 0 1-1 1H1a1 1 0 0 1-1-1V14h.05c-.025-.331-.05-.662-.05-1a13 13 0 0 1 23-8.3A13 13 0 0 1 46 13c0 .338-.025.669-.051 1H46v14a1 1 0 0 1-1 1zM9 31zm.345 1C11.416 37.368 17.03 42 23 42s11.584-4.632 13.655-10h9.121A23.41 23.41 0 0 1 .224 32h9.121z"
    fill="#fff"
    fill-rule="evenodd"/>
  <circle cx="113" cy="40" r="2"
    fill="#fff" fill-opacity="0.75"></circle>
  <text x="59" y="44" stroke-opacity="0.75"
    stroke="#fff"
    fill="#fff"
    style="font-size: 12px;font-weight: 100;">出行路上</text>
  <text x="119" y="44" stroke-opacity="0.75" 
    stroke="#fff"
    fill="#fff"
    style="font-size: 12px;font-weight: 100;">全心全域</text>
</svg>